<?xml version="1.0" encoding="utf-8"?>
<!-- Generator: Adobe Illustrator 24.2.3, SVG Export Plug-In . SVG Version: 6.00 Build 0)  -->
<svg version="1.1" id="Layer_1" xmlns="http://www.w3.org/2000/svg" xmlns:xlink="http://www.w3.org/1999/xlink" x="0px" y="0px"
	 viewBox="0 0 400 400" style="enable-background:new 0 0 400 400;" xml:space="preserve">
<style type="text/css">
	.st0{fill:#1A1A1A;}
</style>
<path class="st0" d="M363.9,85.6h-17v-5.9c0-3.6-2.9-6.6-6.6-6.6h-18.1V54.5c0-1.8-0.7-3.5-2.1-4.8c-1.3-1.2-3.1-1.9-4.9-1.8
	c-0.9,0.1-22.9,1.4-48.9,11.9c-29.6,11.9-52.3,30.7-66.5,55c-14.1-24.3-36.8-43.2-66.5-55c-26-10.4-47.9-11.8-48.9-11.9
	c-1.8-0.1-3.6,0.5-4.9,1.8c-1.3,1.2-2.1,3-2.1,4.8v18.7H59.7c-3.6,0-6.6,2.9-6.6,6.6v5.9h-17c-3.6,0-6.6,2.9-6.6,6.6v224.5
	c0,1.8,0.8,3.6,2.1,4.8c1.4,1.2,3.2,1.9,5,1.7c1-0.1,96.8-8,157.1,26.1c0,0,0,0,0.1,0c0.3,0.2,0.6,0.3,0.9,0.5
	c0.1,0.1,0.2,0.2,0.4,0.4c0.3,0.3,0.6,0.6,1,0.8c1.1,0.7,2.3,1.1,3.6,1.1c0.1,0,0.2,0,0.3,0c0.1,0,0.2,0,0.3,0
	c1.2,0,2.5-0.4,3.6-1.1c0.4-0.2,0.7-0.5,1-0.8c0.1-0.1,0.3-0.2,0.4-0.4c0.3-0.2,0.6-0.3,0.9-0.5c0,0,0,0,0.1,0
	c60.2-34,156.1-26.2,157.1-26.1c1.8,0.2,3.6-0.5,5-1.7c1.4-1.2,2.1-3,2.1-4.8V92.1C370.4,88.5,367.5,85.6,363.9,85.6z M333.8,86.3
	v199.3c-8.7,0.5-25.2,2-45,6.6c-18.5,4.3-42.3,11.9-64.7,25.4c1.2-1.4,2.5-2.8,3.8-4.2c22.2-23.5,51.9-36.7,88.3-39.1
	c3.4-0.2,6.1-3.1,6.1-6.5V86.3H333.8z M271,72.1c15.7-6.3,30.1-9.1,38.2-10.3v199.8c-46,4.7-74.6,25.6-90.8,42.7
	c-4.4,4.7-8.1,9.3-11.3,13.7V130.5c0-0.3,0-0.6-0.1-0.9C219.1,103.7,240.6,84.4,271,72.1z M90.8,61.8c8,1.2,22.2,3.9,37.8,10.2
	c30.5,12.2,52.2,31.6,64.3,57.6c0,0.3-0.1,0.6-0.1,0.9V318c-3.1-4.3-6.8-9-11.3-13.7c-16.1-17.1-44.8-38-90.8-42.7V61.8z M66.2,86.3
	h11.5v181.4c0,3.4,2.7,6.3,6.1,6.5c36.2,2.4,65.7,15.5,87.8,38.7c1.5,1.6,2.9,3.1,4.2,4.7c-22.3-13.5-46.2-21.1-64.7-25.4
	c-19.8-4.6-36.3-6.1-45-6.6V86.3z M42.7,309.7v-211h10.4v193.1c0,3.6,2.9,6.5,6.5,6.6c0.6,0,46.3,0.5,90.4,20.4
	c-17-4.2-35.9-7-56.6-8.5C71,308.7,52.4,309.2,42.7,309.7z M357.3,309.7c-9.7-0.5-28.3-1-50.8,0.6c-20.6,1.5-39.5,4.3-56.5,8.4
	c14.7-6.6,29.3-11,41.4-13.8c27.4-6.4,48.7-6.6,49-6.6c3.6,0,6.5-2.9,6.5-6.6V98.7h10.4V309.7z"/>
</svg>
