<?xml version="1.0" encoding="utf-8"?>
<!-- Generator: Adobe Illustrator 24.2.3, SVG Export Plug-In . SVG Version: 6.00 Build 0)  -->
<svg version="1.1" id="Layer_1" xmlns="http://www.w3.org/2000/svg" xmlns:xlink="http://www.w3.org/1999/xlink" x="0px" y="0px"
	 viewBox="0 0 400 400" style="enable-background:new 0 0 400 400;" xml:space="preserve">
<style type="text/css">
	.st0{fill:#2A333F;}
</style>
<g>
	<path class="st0" d="M200,31.6c-61.3,0-152.4,9.4-152.4,35.3v266.4c0,25.9,91.1,35.3,152.4,35.3s152.4-9.4,152.4-35.3V66.8
		C352.4,40.9,261.3,31.6,200,31.6z M343.7,244.4c0,3.4-8.4,11-39.9,17.6c-27.7,5.8-64.5,9-103.8,9s-76.1-3.2-103.8-9
		c-31.5-6.6-39.9-14.2-39.9-17.6v-76c24.2,16.3,93.8,22.5,143.7,22.5s119.5-6.2,143.7-22.5V244.4z M343.7,155.6
		c0,3.4-8.4,11-39.9,17.6c-27.7,5.8-64.5,9-103.8,9s-76.1-3.2-103.8-9c-31.5-6.6-39.9-14.2-39.9-17.6v-76
		c24.2,16.3,93.8,22.5,143.7,22.5s119.5-6.2,143.7-22.5V155.6z M96.2,49.2c27.7-5.8,64.5-9,103.8-9s76.1,3.2,103.8,9
		c31.5,6.6,39.9,14.2,39.9,17.6c0,3.4-8.4,11-39.9,17.6c-27.7,5.8-64.5,9-103.8,9s-76.1-3.2-103.8-9c-31.5-6.6-39.9-14.2-39.9-17.6
		C56.3,63.4,64.7,55.8,96.2,49.2z M303.8,350.8c-27.7,5.8-64.5,9-103.8,9s-76.1-3.2-103.8-9c-31.5-6.6-39.9-14.2-39.9-17.6v-76
		c24.2,16.3,93.8,22.5,143.7,22.5s119.5-6.2,143.7-22.5v76C343.7,336.6,335.3,344.2,303.8,350.8z"/>
	<path class="st0" d="M224,146.1c0,0,0.1,0,0.2,0c34.5-1.2,66.2-4.9,89.2-10.5c2.3-0.6,3.8-2.9,3.2-5.2c-0.6-2.3-2.9-3.8-5.2-3.2
		c-22.4,5.5-53.5,9.1-87.4,10.3c-2.4,0.1-4.3,2.1-4.2,4.5C219.8,144.2,221.7,146.1,224,146.1z"/>
	<path class="st0" d="M224,234.9c0,0,0.1,0,0.2,0c34.5-1.2,66.2-4.9,89.2-10.5c2.3-0.6,3.8-2.9,3.2-5.2c-0.6-2.3-2.9-3.8-5.2-3.2
		c-22.5,5.5-53.5,9.1-87.4,10.3c-2.4,0.1-4.3,2.1-4.2,4.5C219.8,233,221.7,234.9,224,234.9z"/>
	<path class="st0" d="M311.3,304.7c-22.5,5.5-53.5,9.1-87.4,10.3c-2.4,0.1-4.3,2.1-4.2,4.5c0.1,2.3,2,4.2,4.3,4.2c0,0,0.1,0,0.2,0
		c34.5-1.2,66.2-4.9,89.2-10.5c2.3-0.6,3.8-2.9,3.2-5.2C316,305.6,313.6,304.1,311.3,304.7z"/>
	<path class="st0" d="M93,108.1c-11.7,0-21.2,9.5-21.2,21.2c0,11.7,9.5,21.2,21.2,21.2c11.7,0,21.2-9.5,21.2-21.2
		C114.2,117.6,104.7,108.1,93,108.1z M93,141.8c-6.9,0-12.5-5.6-12.5-12.5c0-6.9,5.6-12.5,12.5-12.5c6.9,0,12.5,5.6,12.5,12.5
		C105.5,136.2,99.9,141.8,93,141.8z"/>
	<path class="st0" d="M93,197.5c-11.7,0-21.2,9.5-21.2,21.2c0,11.7,9.5,21.2,21.2,21.2c11.7,0,21.2-9.5,21.2-21.2
		C114.2,207,104.7,197.5,93,197.5z M93,231.1c-6.9,0-12.5-5.6-12.5-12.5c0-6.9,5.6-12.5,12.5-12.5c6.9,0,12.5,5.6,12.5,12.5
		C105.5,225.5,99.9,231.1,93,231.1z"/>
	<path class="st0" d="M93,286.9c-11.7,0-21.2,9.5-21.2,21.2s9.5,21.2,21.2,21.2c11.7,0,21.2-9.5,21.2-21.2S104.7,286.9,93,286.9z
		 M93,320.5c-6.9,0-12.5-5.6-12.5-12.5s5.6-12.5,12.5-12.5c6.9,0,12.5,5.6,12.5,12.5S99.9,320.5,93,320.5z"/>
</g>
</svg>
