<?xml version="1.0" encoding="utf-8"?>
<!-- Generator: Adobe Illustrator 24.2.3, SVG Export Plug-In . SVG Version: 6.00 Build 0)  -->
<svg version="1.1" id="Layer_1" xmlns="http://www.w3.org/2000/svg" xmlns:xlink="http://www.w3.org/1999/xlink" x="0px" y="0px"
	 viewBox="0 0 400 400" style="enable-background:new 0 0 400 400;" xml:space="preserve">
<style type="text/css">
	.st0{fill:#010101;}
</style>
<g>
	<g>
		<path class="st0" d="M360.7,318.5H39.3c-6.3,0-11.5-5.1-11.5-11.5V93c0-6.3,5.1-11.5,11.5-11.5h321.4c6.3,0,11.5,5.1,11.5,11.5
			v214C372.2,313.3,367.1,318.5,360.7,318.5z M50.8,295.5h298.5v-191H50.8V295.5z"/>
	</g>
	<g>
		<path class="st0" d="M239.9,223.7c-3,0-5.9-1.1-8.2-3.4c-4.5-4.5-4.4-11.8,0.1-16.2L352.7,84.8c4.5-4.5,11.8-4.4,16.2,0.1
			c4.5,4.5,4.4,11.8-0.1,16.2L247.9,220.3C245.7,222.5,242.8,223.7,239.9,223.7z"/>
	</g>
	<g>
		<path class="st0" d="M160.1,223.7c-2.9,0-5.8-1.1-8.1-3.3L31.2,101.2c-4.5-4.5-4.6-11.7-0.1-16.2c4.5-4.5,11.7-4.6,16.2-0.1
			L168.2,204c4.5,4.5,4.6,11.7,0.1,16.2C166.1,222.5,163.1,223.7,160.1,223.7z"/>
	</g>
	<g>
		<path class="st0" d="M39.3,315.3c-3,0-5.9-1.1-8.2-3.4c-4.5-4.5-4.4-11.8,0.1-16.2l106.9-105.4c4.5-4.5,11.8-4.4,16.2,0.1
			c4.5,4.5,4.4,11.8-0.1,16.2L47.3,312C45.1,314.2,42.2,315.3,39.3,315.3z"/>
	</g>
	<g>
		<path class="st0" d="M360.7,315.3c-2.9,0-5.8-1.1-8.1-3.3L245.7,206.6c-4.5-4.5-4.6-11.7-0.1-16.2c4.5-4.5,11.7-4.6,16.2-0.1
			l106.9,105.4c4.5,4.5,4.6,11.7,0.1,16.2C366.6,314.2,363.7,315.3,360.7,315.3z"/>
	</g>
	<g>
		<path class="st0" d="M239.9,223.7h-79.7c-6.3,0-11.5-5.1-11.5-11.5c0-6.3,5.1-11.5,11.5-11.5h79.7c6.3,0,11.5,5.1,11.5,11.5
			C251.3,218.5,246.2,223.7,239.9,223.7z"/>
	</g>
</g>
</svg>
