<?xml version="1.0" encoding="utf-8"?>
<!-- Generator: Adobe Illustrator 24.2.3, SVG Export Plug-In . SVG Version: 6.00 Build 0)  -->
<svg version="1.1" xmlns="http://www.w3.org/2000/svg" xmlns:xlink="http://www.w3.org/1999/xlink" x="0px" y="0px"
	 viewBox="0 0 492 492" style="enable-background:new 0 0 492 492;" xml:space="preserve">
<g id="Layer_1">
	<g>
		<polygon points="425.5,426 76.6,426 67,426 67,416.4 67,360.9 67,67.5 86.2,67.5 86.2,360.9 86.2,406.8 425.5,406.8 		"/>
		<polygon points="365.7,164.3 321.4,251.1 316.8,260.1 308.1,255.1 267.6,231.7 251.1,293.3 246.8,309.3 235.1,297.6 194.6,257.1 
			153.3,328.7 146.9,339.7 138.1,330.6 112.6,304.5 84.4,353.4 67.8,343.8 102.3,284 108.7,273 117.5,282.1 143,308.2 184.3,236.7 
			190.5,225.9 199.4,234.7 236.9,272.2 252.3,214.7 255.5,202.7 266.3,208.9 308.9,233.5 348.6,155.6 		"/>
	</g>
</g>
<g id="Master_Layer_2">
</g>
</svg>
