<?xml version="1.0" encoding="utf-8"?>
<!-- Generator: Adobe Illustrator 24.2.3, SVG Export Plug-In . SVG Version: 6.00 Build 0)  -->
<svg version="1.1" id="Layer_1" xmlns="http://www.w3.org/2000/svg" xmlns:xlink="http://www.w3.org/1999/xlink" x="0px" y="0px"
	 viewBox="0 0 400 400" style="enable-background:new 0 0 400 400;" xml:space="preserve">
<style type="text/css">
	.st0{fill:#111C27;}
</style>
<g>
	<path class="st0" d="M160.7,54.8h46.7c7.6,0,13.7-6.1,13.7-13.7c0-7.6-6.1-13.7-13.7-13.7h-11.8v-5.6c0-6.4-5.2-11.5-11.5-11.5
		c-6.4,0-11.5,5.2-11.5,11.5v5.6h-11.8c-7.6,0-13.7,6.1-13.7,13.7C147,48.7,153.1,54.8,160.7,54.8z M178.1,21.8c0-3.3,2.7-6,6-6
		c3.3,0,6,2.7,6,6v5.6h-11.9V21.8z"/>
	<path class="st0" d="M245.7,144.2h-85.5c-1.7,0-3.1,1.4-3.1,3.1c0,1.7,1.4,3.1,3.1,3.1h85.5c1.7,0,3.1-1.4,3.1-3.1
		C248.8,145.5,247.4,144.2,245.7,144.2z"/>
	<path class="st0" d="M245.7,207.8h-85.5c-1.7,0-3.1,1.4-3.1,3.1c0,1.7,1.4,3.1,3.1,3.1h85.5c1.7,0,3.1-1.4,3.1-3.1
		C248.8,209.2,247.4,207.8,245.7,207.8z"/>
	<path class="st0" d="M245.7,271.5h-85.5c-1.7,0-3.1,1.4-3.1,3.1s1.4,3.1,3.1,3.1h85.5c1.7,0,3.1-1.4,3.1-3.1
		S247.4,271.5,245.7,271.5z"/>
	<path class="st0" d="M129.8,133.5l6.1-4.8c-0.6-0.8-1.5-1.3-2.5-1.3H99.9c-1.7,0-3.1,1.4-3.1,3.1V164c0,1.7,1.4,3.1,3.1,3.1h33.5
		c1.7,0,3.1-1.4,3.1-3.1v-19.3l-6.1,4.8v11.4H103v-27.4H129.8z"/>
	<path class="st0" d="M149.4,126.3c-1-1.3-3-1.6-4.3-0.5l-28.2,22.2l-3.4-7.6c-0.7-1.5-2.5-2.2-4.1-1.5c-1.5,0.7-2.2,2.5-1.5,4.1
		l5,11.2c0.4,0.9,1.2,1.5,2.1,1.7c0.2,0.1,0.5,0.1,0.7,0.1c0.7,0,1.4-0.2,1.9-0.7l31.3-24.6C150.2,129.6,150.5,127.6,149.4,126.3z"
		/>
	<path class="st0" d="M96.8,228.8c0,1.7,1.4,3.1,3.1,3.1h33.5c1.7,0,3.1-1.4,3.1-3.1v-19.3l-6.1,4.8v11.4H103v-27.4h26.8l6.1-4.8
		c-0.6-0.8-1.5-1.3-2.5-1.3H99.9c-1.7,0-3.1,1.4-3.1,3.1V228.8z"/>
	<path class="st0" d="M149.4,191.1c-1-1.3-3-1.6-4.3-0.5l-28.2,22.2l-3.4-7.6c-0.7-1.5-2.5-2.2-4.1-1.5c-1.5,0.7-2.2,2.5-1.5,4.1
		l5,11.2c0.4,0.9,1.2,1.5,2.1,1.7c0.2,0.1,0.5,0.1,0.7,0.1c0.7,0,1.4-0.2,1.9-0.7l31.3-24.6C150.2,194.4,150.5,192.5,149.4,191.1z"
		/>
	<path class="st0" d="M96.8,293.6c0,1.7,1.4,3.1,3.1,3.1h33.5c1.7,0,3.1-1.4,3.1-3.1v-19.3l-6.1,4.8v11.4H103v-27.4h26.8l6.1-4.8
		c-0.6-0.8-1.5-1.3-2.5-1.3H99.9c-1.7,0-3.1,1.4-3.1,3.1V293.6z"/>
	<path class="st0" d="M149.4,255.9c-1-1.3-3-1.6-4.3-0.5l-28.2,22.2l-3.4-7.6c-0.7-1.5-2.5-2.2-4.1-1.5c-1.5,0.7-2.2,2.5-1.5,4.1
		l5,11.2c0.4,0.9,1.2,1.5,2.1,1.7c0.2,0.1,0.5,0.1,0.7,0.1c0.7,0,1.4-0.2,1.9-0.7l31.3-24.6C150.2,259.2,150.5,257.3,149.4,255.9z"
		/>
	<path class="st0" d="M83.5,341.6V90.3h201.1v199.3c5.7,0,11.1,0.9,16.2,2.6V57.9c0-10.5-8.5-19-19-19h-55.3
		c0.1,0.7,0.1,1.5,0.1,2.2c0,10.6-8.6,19.3-19.3,19.3h-46.7c-10.6,0-19.3-8.6-19.3-19.3c0-0.8,0-1.5,0.1-2.2H86.3
		c-10.5,0-19,8.5-19,19v281.5c0,10.5,8.5,19,19,19h149c-1.8-5.3-2.8-10.9-2.8-16.8H83.5z"/>
	<path class="st0" d="M284.6,293.5c-26.6,0-48.1,21.5-48.1,48.1c0,26.6,21.5,48.1,48.1,48.1c26.6,0,48.1-21.5,48.1-48.1
		C332.7,315.1,311.2,293.5,284.6,293.5z M313.8,322.4L279.6,367c-1,1.2-2.4,2-4,2c-0.1,0-0.1,0-0.2,0c-1.6-0.1-3.1-0.9-4-2.2
		l-16.2-24.3c-1.5-2.3-0.9-5.4,1.4-7c2.3-1.5,5.4-0.9,7,1.4l12.3,18.5l30-39c1.7-2.2,4.8-2.6,7-0.9
		C315.1,317.1,315.5,320.2,313.8,322.4z"/>
</g>
</svg>
