<?xml version="1.0" encoding="utf-8"?>
<!-- Generator: Adobe Illustrator 24.2.3, SVG Export Plug-In . SVG Version: 6.00 Build 0)  -->
<svg version="1.1" id="Layer_1" xmlns="http://www.w3.org/2000/svg" xmlns:xlink="http://www.w3.org/1999/xlink" x="0px" y="0px"
	 viewBox="0 0 400 400" style="enable-background:new 0 0 400 400;" xml:space="preserve">
<style type="text/css">
	.st0{fill:#DBC000;}
</style>
<g>
	<path class="st0" d="M200,10.4c-50.6,0-98.2,19.7-134.1,55.5C30.1,101.8,10.4,149.4,10.4,200s19.7,98.2,55.5,134.1
		c35.8,35.8,83.4,55.5,134.1,55.5c50.6,0,98.2-19.7,134.1-55.5c35.8-35.8,55.5-83.4,55.5-134.1s-19.7-98.2-55.5-134.1
		C298.2,30.1,250.6,10.4,200,10.4z M321.3,321.3c-32.4,32.4-75.5,50.2-121.3,50.2s-88.9-17.8-121.3-50.2S28.5,245.8,28.5,200
		s17.8-88.9,50.2-121.3S154.2,28.5,200,28.5s88.9,17.8,121.3,50.2s50.2,75.5,50.2,121.3S353.7,288.9,321.3,321.3z"/>
	<path class="st0" d="M244.1,295.7H156c-5,0-9,4-9,9s4,9,9,9h88.1c5,0,9-4,9-9S249,295.7,244.1,295.7z"/>
	<path class="st0" d="M140.1,171.5H93.8c-5,0-9,4-9,9s4,9,9,9H140c5,0,9-4,9-9C149.1,175.5,145,171.5,140.1,171.5z"/>
	<path class="st0" d="M301.1,171.5h-46.2c-5,0-9,4-9,9s4,9,9,9h46.2c5,0,9-4,9-9S306.1,171.5,301.1,171.5z"/>
</g>
</svg>
