<?xml version="1.0" encoding="utf-8"?>
<!-- Generator: Adobe Illustrator 24.2.3, SVG Export Plug-In . SVG Version: 6.00 Build 0)  -->
<svg version="1.1" id="Layer_1" xmlns="http://www.w3.org/2000/svg" xmlns:xlink="http://www.w3.org/1999/xlink" x="0px" y="0px"
	 viewBox="0 0 400 400" style="enable-background:new 0 0 400 400;" xml:space="preserve">
<style type="text/css">
	.st0{fill:#0CF400;}
</style>
<g>
	<path class="st0" d="M200,5.7c-51.9,0-100.7,20.2-137.4,56.9S5.7,148.1,5.7,200s20.2,100.7,56.9,137.4s85.5,56.9,137.4,56.9
		s100.7-20.2,137.4-56.9s56.9-85.5,56.9-137.4S374.1,99.3,337.4,62.6S251.9,5.7,200,5.7z M324.3,324.3
		c-33.2,33.2-77.3,51.5-124.3,51.5c-46.9,0-91.1-18.3-124.3-51.5S24.2,246.9,24.2,200s18.3-91.1,51.5-124.3S153,24.2,200,24.2
		c46.9,0,91.1,18.3,124.3,51.5S375.8,153,375.8,200C375.8,246.9,357.5,291.1,324.3,324.3z"/>
	<path class="st0" d="M246.7,273.3c-4.7-2-10.1,0.2-12.1,4.9c-6,14.1-19.7,23.2-35,23.2c-15.2,0-28.9-9-34.9-23
		c-2-4.7-7.5-6.9-12.2-4.8c-4.7,2-6.9,7.5-4.8,12.2c8.9,20.7,29.3,34.1,51.9,34.1c22.7,0,43.1-13.5,52-34.5
		C253.6,280.7,251.4,275.3,246.7,273.3z"/>
	<path class="st0" d="M148,138.5L148,138.5c-5.5-5.5-14.4-5.5-19.9,0l-8,8l-7.4-7.4c-5.5-5.5-14.4-5.5-19.9,0s-5.5,14.4,0,19.9
		l27.3,27.3l19.9-19.9l8-8C153.5,152.9,153.5,144,148,138.5z"/>
	<path class="st0" d="M307.1,138.5c-5.5-5.5-14.4-5.5-19.9,0l-8,8l-7.4-7.4c-5.5-5.5-14.4-5.5-19.9,0s-5.5,14.4,0,19.9l27.3,27.3
		l19.9-19.9l8-8C312.6,152.9,312.6,144,307.1,138.5L307.1,138.5z"/>
</g>
</svg>
