<?xml version="1.0" encoding="utf-8"?>
<!-- Generator: Adobe Illustrator 24.2.3, SVG Export Plug-In . SVG Version: 6.00 Build 0)  -->
<svg version="1.1" id="Layer_1" xmlns="http://www.w3.org/2000/svg" xmlns:xlink="http://www.w3.org/1999/xlink" x="0px" y="0px"
	 viewBox="0 0 400 400" style="enable-background:new 0 0 400 400;" xml:space="preserve">
<style type="text/css">
	.st0{fill:#7BE500;}
</style>
<g>
	<path class="st0" d="M200,11.9c-50.2,0-97.5,19.6-133,55.1s-55.1,82.8-55.1,133S31.5,297.5,67,333s82.8,55.1,133,55.1
		s97.5-19.6,133-55.1s55.1-82.8,55.1-133S368.5,102.5,333,67S250.2,11.9,200,11.9z M320.3,320.3c-32.1,32.1-74.9,49.8-120.3,49.8
		c-45.5,0-88.2-17.7-120.3-49.8C47.5,288.2,29.8,245.5,29.8,200s17.7-88.2,49.8-120.3s74.9-49.8,120.3-49.8
		c45.5,0,88.2,17.7,120.3,49.8S370,154.6,370,200S352.5,288.2,320.3,320.3z"/>
	<path class="st0" d="M110.5,139.6c-3.5-3.5-9.2-3.5-12.7,0s-3.5,9.2,0,12.7l19.1,19.1l-18.4,18.4c-3.5,3.5-3.5,9.2,0,12.7
		c1.7,1.7,4,2.6,6.3,2.6s4.6-0.9,6.3-2.6l24.7-24.7c3.5-3.5,3.5-9.2,0-12.7L110.5,139.6z"/>
	<path class="st0" d="M302.2,139.6c-3.5-3.5-9.2-3.5-12.7,0L264.1,165c-3.5,3.5-3.5,9.2,0,12.7l24.7,24.7c1.7,1.7,4,2.6,6.3,2.6
		s4.6-0.9,6.3-2.6c3.5-3.5,3.5-9.2,0-12.7L283,171.3l19.1-19.1C305.7,148.7,305.7,143.1,302.2,139.6z"/>
	<path class="st0" d="M245.2,268.1c-4.6-1.9-9.8,0.2-11.7,4.8c-5.8,13.6-19.1,22.4-33.8,22.4s-27.9-8.7-33.8-22.2
		c-2-4.5-7.2-6.6-11.8-4.7c-4.5,2-6.6,7.2-4.7,11.8c8.6,20.1,28.4,33.1,50.2,33.1c22,0,41.8-13.1,50.3-33.4
		C251.9,275.3,249.7,270,245.2,268.1z"/>
</g>
</svg>
