<?xml version="1.0" encoding="utf-8"?>
<!-- Generator: Adobe Illustrator 24.2.3, SVG Export Plug-In . SVG Version: 6.00 Build 0)  -->
<svg version="1.1" id="Layer_1" xmlns="http://www.w3.org/2000/svg" xmlns:xlink="http://www.w3.org/1999/xlink" x="0px" y="0px"
	 viewBox="0 0 400 400" style="enable-background:new 0 0 400 400;" xml:space="preserve">
<style type="text/css">
	.st0{fill:#D37300;}
</style>
<g>
	<path class="st0" d="M199.7,262.7c-22.4,0-42.5,13.3-51.2,34c-2,4.6,0.2,10,4.8,11.9c1.2,0.5,2.4,0.7,3.5,0.7
		c3.6,0,6.9-2.1,8.4-5.6c5.9-13.9,19.4-22.8,34.4-22.8c15,0,28.4,8.9,34.4,22.6c2,4.6,7.4,6.8,12,4.8s6.8-7.4,4.8-12
		C242,275.9,221.9,262.7,199.7,262.7z"/>
	<path class="st0" d="M200,8.6c-51.1,0-99.2,19.9-135.3,56.1C28.5,100.8,8.6,148.9,8.6,200s19.9,99.2,56.1,135.3
		c36.2,36.2,84.2,56.1,135.3,56.1s99.2-19.9,135.3-56.1c36.2-36.2,56.1-84.2,56.1-135.3s-19.9-99.2-56.1-135.3
		C299.2,28.5,251.1,8.6,200,8.6z M322.4,322.4c-32.7,32.7-76.2,50.7-122.4,50.7c-46.3,0-89.7-18-122.4-50.7
		C44.8,289.7,26.8,246.3,26.8,200s18-89.7,50.7-122.4s76.2-50.7,122.4-50.7c46.3,0,89.7,18,122.4,50.7S373,153.8,373,200
		C373.2,246.3,355.2,289.7,322.4,322.4z"/>
	<path class="st0" d="M154.2,182.2c1.8-4.7-0.5-10-5.2-11.8l-46.7-18.2c-4.7-1.8-10,0.5-11.8,5.2s0.5,10,5.2,11.8l46.7,18.2
		c1.1,0.4,2.2,0.6,3.3,0.6C149.3,188,152.8,185.8,154.2,182.2z"/>
	<path class="st0" d="M297.7,152.1L251,170.4c-4.7,1.8-7,7.1-5.2,11.8c1.4,3.6,4.8,5.8,8.5,5.8c1.1,0,2.2-0.2,3.3-0.6l46.7-18.2
		c4.7-1.8,7-7.1,5.2-11.8C307.6,152.6,302.4,150.3,297.7,152.1z"/>
</g>
</svg>
