<?xml version="1.0" encoding="utf-8"?>
<!-- Generator: Adobe Illustrator 24.2.3, SVG Export Plug-In . SVG Version: 6.00 Build 0)  -->
<svg version="1.1" id="Layer_1" xmlns="http://www.w3.org/2000/svg" xmlns:xlink="http://www.w3.org/1999/xlink" x="0px" y="0px"
	 viewBox="0 0 400 400" style="enable-background:new 0 0 400 400;" xml:space="preserve">
<style type="text/css">
	.st0{fill:#B51212;}
</style>
<g>
	<path class="st0" d="M63.9,63.9C27.5,100.2,7.5,148.6,7.5,200s20,99.8,56.4,136.1c36.4,36.4,84.7,56.4,136.1,56.4
		s99.8-20,136.1-56.4c36.4-36.4,56.4-84.7,56.4-136.1s-20-99.8-56.4-136.1C299.8,27.5,251.4,7.5,200,7.5S100.2,27.5,63.9,63.9z
		 M374.2,200c0,46.5-18.1,90.3-51,123.2s-76.6,51-123.2,51c-46.5,0-90.3-18.1-123.2-51s-51-76.6-51-123.2c0-46.5,18.1-90.3,51-123.2
		s76.6-51,123.2-51c46.5,0,90.3,18.1,123.2,51C356,109.7,374.2,153.5,374.2,200z"/>
	<path class="st0" d="M134.4,164.2l-26-26c-3.6-3.6-9.4-3.6-13,0s-3.6,9.4,0,13l19.6,19.6l-18.8,18.8c-3.6,3.6-3.6,9.4,0,13
		c1.8,1.8,4.1,2.7,6.5,2.7c2.3,0,4.7-0.9,6.5-2.7l25.3-25.3C138,173.6,138,167.8,134.4,164.2z"/>
	<path class="st0" d="M290.9,202.4c1.8,1.8,4.1,2.7,6.5,2.7s4.7-0.9,6.5-2.7c3.6-3.6,3.6-9.4,0-13L285,170.7l19.6-19.6
		c3.6-3.6,3.6-9.4,0-13s-9.4-3.6-13,0l-26,26c-3.6,3.6-3.6,9.4,0,13L290.9,202.4z"/>
	<path class="st0" d="M170.2,263.8c-2.5,0.1-4.8,1.2-6.4,3l-24.9,27.9c-3.4,3.8-3.1,9.6,0.7,12.9c1.7,1.6,3.9,2.3,6.1,2.3
		c2.5,0,5-1,6.8-3.1l18.7-20.9l23.2,21.5c3.7,3.4,9.4,3.2,12.9-0.4l19.8-20.9l20.5,21c3.5,3.6,9.3,3.7,13,0.2
		c3.6-3.5,3.7-9.3,0.2-13l-27.1-27.9c-1.7-1.8-4.1-2.8-6.6-2.8c0,0,0,0-0.1,0c-2.5,0-4.9,1.1-6.6,2.9l-20.2,21.3l-23.4-21.7
		C175.1,264.6,172.7,263.7,170.2,263.8z"/>
</g>
</svg>
